<?xml version="1.0" encoding="utf-8"?>
<!-- Generator: Adobe Illustrator 19.2.1, SVG Export Plug-In . SVG Version: 6.00 Build 0)  -->
<svg version="1.1" id="La_Montagne" xmlns="http://www.w3.org/2000/svg" xmlns:xlink="http://www.w3.org/1999/xlink" x="0px"
	 y="0px" viewBox="0 0 613.9 70.5" style="enable-background:new 0 0 613.9 70.5;" xml:space="preserve">
<style type="text/css">
	.st0{fill:#BD2E18;}
</style>
<g>
	<polygon class="st0" points="36,68.6 36,56.4 15,56.4 15,1.9 0,1.9 0,68.6 	"/>
	<path class="st0" d="M82.7,44.8H65.8l3.6-12.4c1.9-6.7,3.3-13.5,4.7-20.2h0.4c1.3,6.7,2.6,13.5,4.5,20.2L82.7,44.8z M105.6,68.6
		L84.2,1.9H64.8L43.4,68.6h16l3.9-13.8h21.7l4.2,13.8H105.6z"/>
	<path class="st0" d="M204.1,68.6L194,1.9h-16.9l-7.5,29.8c-1.4,6-2.3,12.1-3.1,18.2h-0.4c-1-6.1-1.8-12.2-3.5-18.2l-8-29.8h-16.9
		l-9.4,66.7h14.9l3.5-30.5c0.8-7,1.2-14.1,1.6-21.1h0.5c1,6.1,1.8,12.2,3.3,18.2l8.4,33.4h11.1l8-33c1.6-6.2,2.4-12.4,3.3-18.6h0.4
		c0.5,7,0.8,14.1,1.8,21.1l3.7,30.5H204.1z"/>
	<path class="st0" d="M253.5,34.9c0,8.1-1.4,23.6-14.8,23.6c-13.2,0-14.8-15.6-14.8-23.6c0-7.9,1.9-23.1,14.8-23.1
		C251.6,11.8,253.5,27.1,253.5,34.9 M268.7,35c0-16.3-6.8-35-29.9-35c-23.6,0-29.9,18.4-29.9,34.9s6.3,35.6,29.9,35.6
		C262.6,70.5,268.7,51.6,268.7,35"/>
	<path class="st0" d="M331.9,68.6V1.9h-14.9l0.2,31c0.1,6.6,1,13.2,1.8,19.8h-0.5c-1.9-5.4-3.7-11-6.4-16.1L293.3,1.9h-16.8v66.7
		h14.9l-0.2-32.1c0-6.7-1-13.3-1.9-19.9h0.5c1.9,6,3.8,12.2,6.9,17.8l18.5,34.2H331.9z"/>
	<polygon class="st0" points="386.6,13.9 386.6,1.9 339.1,1.9 339.1,13.9 355.3,13.9 355.3,68.6 370.4,68.6 370.4,13.9 	"/>
	<path class="st0" d="M419.4,44.8h-16.8l3.6-12.4c1.9-6.7,3.3-13.5,4.7-20.2h0.4c1.3,6.7,2.6,13.5,4.5,20.2L419.4,44.8z M442.3,68.6
		L420.9,1.9h-19.4l-21.4,66.7h16l3.9-13.8h21.7l4.2,13.8H442.3z"/>
	<path class="st0" d="M497.7,64.8V30.2h-22.9v11.2h8.6V57c-3.3,1.2-6.3,1.8-10,1.8c-14.7,0-17.1-13.6-17.1-23.2
		c0-10,2.9-23.8,17.9-23.8c6.8,0,13.2,1.9,19.3,4.2V3.7c-7-2.4-12.8-3.7-20.4-3.7c-24.6,0-32,17.6-32,35.4c0,9.2,1.9,18.9,8.8,26.4
		c6.2,6.6,13.6,8.6,23.4,8.6C482.4,70.4,489.7,68.5,497.7,64.8"/>
	<path class="st0" d="M561.8,68.6V1.9h-14.9l0.2,31c0.1,6.6,1,13.2,1.8,19.8h-0.5c-1.9-5.4-3.7-11-6.4-16.1L523.3,1.9h-16.8v66.7
		h14.9l-0.2-32.1c0-6.7-1-13.3-1.9-19.9h0.5c1.9,6,3.8,12.2,6.9,17.8l18.5,34.2H561.8z"/>
	<polygon class="st0" points="613.9,68.6 613.9,57.4 585.9,57.4 585.9,39.8 610.1,39.8 610.1,29.5 585.9,29.5 585.9,13 611.8,13 
		611.8,1.9 570.9,1.9 570.9,68.6 	"/>
</g>
</svg>
