<svg id="b601ca12-e091-4484-b851-3f61b6544409" data-name="Calque 1" xmlns="http://www.w3.org/2000/svg" width="752.83" height="1000" viewBox="0 0 752.83 1000"><title>ASM_CLERMONT_AUVERGNE_RVB_2019</title><path d="M754.89,637.4a857.36,857.36,0,0,0,49.57-121.8c5.14-16,10-32.46,14.44-49.05,2.14-8,4.22-16.15,6.21-24.33,3.81-15.71,7.35-31.84,10.53-47.93,1.52-7.71,3-15.61,4.39-23.48,2.65-15,5.07-30.37,7.19-45.64,2-14.15,3.76-28.76,5.31-43.45,1.42-13.48,2.65-27.18,3.66-40.73.95-12.53,1.72-25.15,2.3-37.48.54-11.3.94-22.64,1.19-33.72.73-32.12.14-57.54-.49-73.2-.22-5.45-.45-9.93-.65-13.33-.29-5.1-.51-7.8-.51-7.81-2-.59-197.59-59-357.62-59h-.91C339.57,16.4,143.93,74.86,142,75.45c0,0-.22,2.71-.52,7.81-.19,3.4-.42,7.88-.64,13.33-.62,15.69-1.22,41.13-.49,73.2.26,11.29.66,22.64,1.19,33.71.6,12.56,1.36,25.17,2.29,37.49,1,13.5,2.25,27.21,3.67,40.73,1.52,14.49,3.31,29.11,5.3,43.45,2.13,15.33,4.56,30.69,7.2,45.64,1.36,7.71,2.83,15.61,4.39,23.48,3.18,16.09,6.72,32.22,10.53,47.94,2,8.13,4.07,16.32,6.21,24.32,4.44,16.6,9.3,33.1,14.44,49.05a856.13,856.13,0,0,0,49.57,121.8c107.73,213.82,253,344.92,254.35,346.11a1.61,1.61,0,0,0,1.12,0c1.36-1.15,145.34-129.81,254.31-346.08" transform="translate(-123.59)" fill="#002f6c"/><path d="M510.31,248.43c-49.54,0-89.7,37.2-89.7,83.1a113.92,113.92,0,0,0,2.64,24.4C426.51,372,435.57,387,435.57,387a169.91,169.91,0,0,0,13.94,22.18c4.66,6.07,20.69,27.1,34.18,43.9h0c4.29,5.15,8.28,10,11.54,13.81l.68.79C514.52,488,539.27,523.85,544.59,532c4.93,7.59,10.08,22.44,10.15,38.67,0,.39,0,.78,0,1.19,0,27.46-22.91,49.72-51.19,49.72a51,51,0,0,1-50.64-42.48c-.42-2.58-1.62-3.53-4.18-2.55l-31,9.65a3.06,3.06,0,0,0-2.21,3.45c7.62,38.74,44.22,68.1,88.23,68.1,49.53,0,89.69-37.2,89.69-83.09a114.54,114.54,0,0,0-2.63-24.41c-3.26-16.09-12.32-31.08-12.32-31.08a170.06,170.06,0,0,0-14-22.17c-4.66-6.08-20.68-27.11-34.18-43.9-4.28-5.16-8.28-9.95-11.53-13.81l-.69-.79c-18.61-20.32-43.36-56.16-48.67-64.33-4.93-7.59-10.09-22.44-10.15-38.67,0-.38,0-.78,0-1.19,0-27.45,22.91-49.71,51.19-49.71a51.22,51.22,0,0,1,50.13,39.93c.19.84.36,1.69.51,2.54.29,1.69,1.5,3.23,3.36,2.77L596.32,320a3.09,3.09,0,0,0,2.22-3.46c-7.62-38.74-44.23-68.1-88.23-68.1" transform="translate(-123.59)" fill="#fee900"/><path d="M314.81,401.09c10.62,6.22,36.87,22.3,55,39.28a5.12,5.12,0,0,1,.61,6.67L326.86,509a2.57,2.57,0,0,1-4.63-1c-5.85-35-10.35-87.5-11.7-104.25a2.83,2.83,0,0,1,4.28-2.63m47,253C350.75,626,341,593.7,333.12,560.66a3.82,3.82,0,0,1,.55-3l61.2-89.56a3.68,3.68,0,0,1,5.49-.74c18.29,16,25.89,22.89,30.17,26.67a3.16,3.16,0,0,0,4.38-.16L454.4,465.7a3.19,3.19,0,0,0,0-4.58c-8.33-7.93-60.82-57.23-85.63-74.13-45.22-30.81-79.25-42-92.91-45.65a3.7,3.7,0,0,0-4.68,3.67c.54,31.31,5.56,201.27,49.76,310.56a3.48,3.48,0,0,0,3.23,2.15h35.21a2.63,2.63,0,0,0,2.48-3.6" transform="translate(-123.59)" fill="#fee900"/><path d="M591.13,456.87c1.4,1.95,2.74,4,4,6a4.92,4.92,0,0,0,7.42,1.16c22.67-19.83,37-31.78,41.71-35.68s9.92-7.53,13.57-10a3.21,3.21,0,0,1,5,2.69v30a3.23,3.23,0,0,0,3.18,3.22l14.63.16a3.22,3.22,0,0,1,3.19,3.58c-7,59.71-21.38,130.08-49.8,197.48a2.2,2.2,0,0,0,2,3.06h34.77a4,4,0,0,0,3.64-2.4c36.35-85.94,49.85-176.79,54.35-244.26a3.19,3.19,0,0,0-3.23-3.39H706.55a3.22,3.22,0,0,1-3.21-3.22V341.88a3.21,3.21,0,0,0-5-2.72c-13.59,8.78-52,33.91-74.53,51.91-13.31,10.64-23.36,19.29-43.16,37.22-3.52,3.18-6.16,5.5-1.28,12.35,5.27,7.4,9.65,13.37,11.71,16.23" transform="translate(-123.59)" fill="#fee900"/><path d="M526.72,94.55a35.68,35.68,0,1,0,35.68,35.68,35.73,35.73,0,0,0-35.68-35.68m0,69.17a33.49,33.49,0,1,1,33.48-33.49,33.53,33.53,0,0,1-33.48,33.49" transform="translate(-123.59)" fill="#fee900"/><rect x="528.67" y="122.13" width="5.09" height="40.5" transform="translate(255.1 670.77) rotate(-88.9)" fill="#fee900"/><path d="M522.9,133.28a16.87,16.87,0,0,0,13-5.66l.24-.27-3.7-3.49-.26.29a11.83,11.83,0,0,1-17.68.17l-.17-.12-4.19-.08-10.84,17.76,4.35,2.65,9.08-14.92a16.94,16.94,0,0,0,10.21,3.67" transform="translate(-123.59)" fill="#fee900"/><polygon points="407.78 112.01 421.43 136.49 425.89 134.03 410.11 105.71 410 105.52 405.81 105.44 396.32 121.04 400.67 123.69 407.78 112.01" fill="#fee900"/><path d="M304.35,149.37a14.08,14.08,0,0,0,.37-7.45q-1.14-6-5.64-8.51t-11.59-1.2l-15.73,3,6.88,36,8.18-1.54-2-10.3L292.4,158l.78-.15,7.71,9.21,9.25-1.75-10-10.44a11.23,11.23,0,0,0,4.19-5.46m-8.3-.78a7.9,7.9,0,0,1-4.95,2.57l-7.55,1.43-2.33-12.2,7.55-1.43a8.07,8.07,0,0,1,5.54.53,5.58,5.58,0,0,1,2.7,4.15,5.81,5.81,0,0,1-1,5" transform="translate(-123.59)" fill="#fee900"/><polygon points="703.57 165.96 705.51 159.34 678.59 151.43 668.21 186.79 695.68 194.87 697.63 188.25 678.13 182.52 680.43 174.69 697.45 179.69 699.4 173.07 682.38 168.07 684.63 160.39 703.57 165.96" fill="#fee900"/><polygon points="662.18 147.18 656.42 170.27 644.81 142.85 637.45 141.01 628.54 176.78 636.26 178.7 641.99 155.71 653.58 183.01 660.93 184.84 669.84 149.09 662.18 147.18" fill="#fee900"/><polygon points="217.64 122.86 209.94 146.99 195.07 126.42 185.91 127.87 191.67 164.27 199.05 163.1 195.17 138.51 208.87 157.77 214.17 156.93 221.22 134.39 225.11 158.99 232.49 157.82 226.74 121.42 217.64 122.86" fill="#fee900"/><path d="M202.6,181.08a11.88,11.88,0,0,1-4.51,2.51,10.82,10.82,0,0,1-5.89.07,11.13,11.13,0,0,1-5-2.95,11.91,11.91,0,0,1-3-5.24,11.75,11.75,0,0,1-.18-6,11.06,11.06,0,0,1,7.81-8.14,11.36,11.36,0,0,1,5.3-.16,13.8,13.8,0,0,1,5.24,2.2l3-7a20.79,20.79,0,0,0-15.66-1.94,20.26,20.26,0,0,0-8.92,5.1A18.35,18.35,0,0,0,176,177.9a19,19,0,0,0,5.09,8.68,18.31,18.31,0,0,0,8.57,4.71,19.7,19.7,0,0,0,10.15-.29,19.33,19.33,0,0,0,7.18-3.9,22.41,22.41,0,0,0,5.34-6.56l-6.17-3.77a15.71,15.71,0,0,1-3.51,4.31" transform="translate(-123.59)" fill="#fee900"/><polygon points="127.8 170.18 126.03 162.22 143.34 158.35 141.83 151.62 124.52 155.49 122.77 147.68 142.04 143.37 140.53 136.64 113.15 142.77 121.19 178.73 149.14 172.48 147.64 165.75 127.8 170.18" fill="#fee900"/><polygon points="100.69 176.32 93.52 147.61 85.45 149.63 94.37 185.39 117.77 179.55 116.01 172.5 100.69 176.32" fill="#fee900"/><polygon points="520.09 157.02 548.42 161.19 549.43 154.36 529.32 151.4 530.51 143.33 548.06 145.91 549.07 139.09 531.51 136.51 532.68 128.59 552.21 131.47 553.22 124.64 525.45 120.55 520.09 157.02" fill="#fee900"/><polygon points="512.71 118.97 499.47 145.41 492.68 116.64 483.79 115.61 493.93 153.88 502.45 154.88 521.24 119.95 512.71 118.97" fill="#fee900"/><path d="M593.3,136.19a8.76,8.76,0,0,1-2.66,6.07,7.66,7.66,0,0,1-6,1.78,8,8,0,0,1-5.77-2.77,8.49,8.49,0,0,1-1.72-6.4L579,113.31l-8.3-.69-1.77,21.57a16.88,16.88,0,0,0,1.31,8.54,13.54,13.54,0,0,0,5.26,5.92,18.89,18.89,0,0,0,8.56,2.63,18.69,18.69,0,0,0,8.82-1.2,13.49,13.49,0,0,0,6.08-5,17,17,0,0,0,2.66-8.22l1.77-21.56-8.29-.68Z" transform="translate(-123.59)" fill="#fee900"/><path d="M394.63,124.92a18.4,18.4,0,0,0-7.87-6,21.71,21.71,0,0,0-20,2.32,18.81,18.81,0,0,0,3.84,32.81,21.41,21.41,0,0,0,20-2.32,18.6,18.6,0,0,0,7.77-17.57,18.34,18.34,0,0,0-3.71-9.29m-5.57,16.39a11.27,11.27,0,0,1-3.53,4.7,10.59,10.59,0,0,1-5.39,2.19,10.7,10.7,0,0,1-5.8-.92,11.85,11.85,0,0,1-4.62-3.75,12.19,12.19,0,0,1-1.4-11.77,11.45,11.45,0,0,1,3.65-4.69,10.91,10.91,0,0,1,5.47-2.19,10.53,10.53,0,0,1,5.74.89,11.35,11.35,0,0,1,4.52,3.74,12,12,0,0,1,2.17,5.69,12.12,12.12,0,0,1-.81,6.11" transform="translate(-123.59)" fill="#fee900"/><path d="M740.4,165.29a19.68,19.68,0,0,1-3.92.7,13.15,13.15,0,0,1-3.56-.19,11.49,11.49,0,0,1-8.66-7.78,12.28,12.28,0,0,1,2.44-11.65,11.47,11.47,0,0,1,11-3.55,14,14,0,0,1,5,2.19,15.26,15.26,0,0,1,4,4l5.82-4.85a21.67,21.67,0,0,0-5.79-5.32,22.92,22.92,0,0,0-7.55-3.1,21.24,21.24,0,0,0-10.53.3,18.59,18.59,0,0,0-8.49,5.16,18.27,18.27,0,0,0-4.58,8.91,18.61,18.61,0,0,0,6,18.2,20.18,20.18,0,0,0,9.27,4.52,25.42,25.42,0,0,0,8,.32,25,25,0,0,0,7.62-2l3-14-7.06-1.49Z" transform="translate(-123.59)" fill="#fee900"/><polygon points="304.29 113.3 306.24 137.01 286.44 114.77 278.89 115.4 281.92 152.12 289.84 151.47 287.9 127.86 307.63 150 315.19 149.38 312.16 112.65 304.29 113.3" fill="#fee900"/><path d="M700.11,128.64l-15.76-2.77L678,162.17l8.19,1.44L688,153.24l7.57,1.33.78.13,3.93,11.39,9.28,1.63-5.62-13.34a11.27,11.27,0,0,0,5.85-3.64,14.24,14.24,0,0,0,3-6.88c.71-4,0-7.35-2.25-10s-5.68-4.39-10.42-5.23M705,142.75a5.91,5.91,0,0,1-2.65,4.32,7.94,7.94,0,0,1-5.55.65l-7.57-1.33,2.16-12.28,7.57,1.33a8.15,8.15,0,0,1,5,2.45,5.68,5.68,0,0,1,1,4.86" transform="translate(-123.59)" fill="#fee900"/><polygon points="347.62 110.98 316.85 112.38 317.18 119.43 328.37 118.92 329.73 148.69 338.04 148.31 336.69 118.55 347.94 118.03 347.62 110.98" fill="#fee900"/><path d="M141.45,83.26c.26-4.44.47-7.1.53-7.81,2.43-.74,198.44-59,357.52-59h.91C660.16,16.4,856,74.82,858,75.44c.07.83.27,3.49.52,7.82.2,3.4.43,7.88.65,13.33.62,15.67,1.22,41.09.49,73.2-.25,10.93-.65,22.28-1.19,33.72-.58,12.31-1.35,24.92-2.29,37.47-1,13.67-2.27,27.37-3.67,40.74-1.56,14.73-3.34,29.34-5.3,43.44-2.14,15.34-4.56,30.7-7.2,45.65-1.39,7.87-2.87,15.77-4.39,23.48-3.18,16.1-6.72,32.23-10.53,47.93-2,8.16-4.07,16.35-6.21,24.33-4.43,16.59-9.3,33.09-14.45,49.05a855.47,855.47,0,0,1-49.56,121.8C648.09,849.37,509,975.87,500.44,983.52a2.3,2.3,0,0,1-1.32-.32c-8.39-7.6-148.78-137-254-345.8a855.92,855.92,0,0,1-49.57-121.8c-5.12-15.89-10-32.39-14.45-49.05-2.15-8.06-4.24-16.25-6.2-24.33-3.8-15.67-7.35-31.79-10.53-47.93-1.55-7.87-3-15.77-4.39-23.48-2.65-15-5.07-30.33-7.2-45.64-2-14.45-3.79-29.07-5.3-43.45-1.43-13.58-2.66-27.28-3.67-40.74-.91-12.18-1.69-24.79-2.29-37.47-.54-11.16-.94-22.51-1.19-33.72-.73-32-.14-57.48.49-73.19.22-5.47.45-9.93.64-13.34M875.58,95.94c-.23-5.59-.46-10.17-.67-13.62-.27-4.77-.49-7.54-.54-8.17a16.49,16.49,0,0,0-11.6-14.4C860.79,59.15,662.85,0,499.5,0,337.15,0,139.22,59.15,137.25,59.74A16.34,16.34,0,0,0,125.63,74.1s-.23,2.84-.55,8.2c-.2,3.49-.43,8.06-.65,13.63-.64,15.89-1.24,41.66-.5,74.24.26,11.58.67,23.06,1.2,34.12.6,12.68,1.38,25.44,2.32,37.92,1,13.57,2.26,27.44,3.71,41.23,1.55,14.71,3.36,29.51,5.37,44,2.16,15.55,4.61,31.1,7.29,46.24,1.38,7.81,2.88,15.82,4.45,23.8,3.21,16.27,6.8,32.63,10.68,48.64,2.05,8.4,4.17,16.7,6.31,24.69,4.52,16.92,9.46,33.69,14.68,49.85a872,872,0,0,0,50.52,124.14c110.41,219.14,257,350.1,258.45,351.28a17.58,17.58,0,0,0,22,.14C512.3,995.07,660.11,862,769.53,644.78a871,871,0,0,0,50.53-124.15c5.25-16.27,10.19-33,14.69-49.84,2.15-8.05,4.27-16.36,6.3-24.7,3.85-15.89,7.44-32.25,10.68-48.63,1.54-7.81,3-15.82,4.45-23.79,2.68-15.17,5.13-30.73,7.28-46.24,2-14.23,3.8-29,5.37-44,1.43-13.58,2.68-27.45,3.72-41.22,1-12.65,1.73-25.41,2.32-37.94.54-11.34.94-22.82,1.2-34.12.74-32.59.14-58.35-.49-74.22" transform="translate(-123.59)" fill="#fee900"/><path d="M484.09,757.19c-11.64,0-20.41,9.38-20.41,21.8,0,11.25,7.57,19.43,18,19.43a17,17,0,0,0,4.38-.49l-1,1.93-.36.68c-3.43,6-4.9,8-10.22,14.82L471,819.78l-1.81,2.16,12.74,2.23,1.46-1.73c4.74-5.79,9.48-11.7,12.19-15.67a56.7,56.7,0,0,0,6.52-12.18A47.82,47.82,0,0,0,505,780.05c0-13-9-22.86-20.91-22.86m8.45,22.6a18.21,18.21,0,0,1-1.16,6.77,12.25,12.25,0,0,1-7,2.15c-5.36,0-9-4.09-9-10.16S478.93,768,483.83,768c5.29,0,8.71,4.61,8.71,11.75" transform="translate(-123.59)" fill="#fee900"/><rect x="318.16" y="758.15" width="12.63" height="65.06" fill="#fee900"/><rect x="390.79" y="758.15" width="12.63" height="65.06" fill="#fee900"/><rect x="422.03" y="758.15" width="12.63" height="65.06" fill="#fee900"/></svg>